# AST/ASF file generated using VICON BodyLanguage
# -----------------------------------------------
:version 1.10
:name VICON
:units
  mass 1.0
  length 0.45
  angle deg
:documentation
   .ast/.asf automatically generated from VICON data using
   VICON BodyBuilder and BodyLanguage model FoxedUp or BRILLIANT.MOD
:root
   order TX TY TZ RX RY RZ
   axis XYZ
   position 0 0 0  
   orientation 0 0 0 
:bonedata
  begin
     id 1 
     name lhipjoint
     direction 0.602128 -0.715006 0.355257 
     length 2.21237 
     axis 0 0 0  XYZ
  end
  begin
     id 2 
     name lfemur
     direction 0.34202 -0.939693 0  
     length 6.71649  
     axis 0 0 20  XYZ
    dof rx ry rz
    limits (-160.0 20.0)
           (-70.0 70.0)
           (-60.0 70.0)
  end
  begin
     id 3 
     name ltibia
     direction 0.34202 -0.939693 0   
     length 6.97123   
     axis 0 0 20   XYZ
    dof rx
    limits (-10.0 170.0)
  end
  begin
     id 4 
     name lfoot
     direction 0.0655697 -0.180151 0.981451   
     length 1.80924   
     axis -90 7.62852e-016 20   XYZ
    dof rx rz
    limits (-45.0 90.0)
           (-70.0 20.0)
  end
  begin
     id 5 
     name ltoes
     direction 1.53545e-011 -4.21827e-011 1   
     length 0.916331   
     axis -90 7.62852e-016 20   XYZ
    dof rx
    limits (-90.0 20.0)
  end
  begin
     id 6 
     name rhipjoint
     direction -0.625414 -0.698792 0.347201   
     length 2.2637  
     axis 0 0 0  XYZ 
  end
  begin
     id 7 
     name rfemur
     direction -0.34202 -0.939693 0   
     length 7.07595   
     axis 0 0 -20   XYZ
    dof rx ry rz
    limits (-160.0 20.0)
           (-70.0 70.0)
           (-70.0 60.0)
  end
  begin
     id 8 
     name rtibia
     direction -0.34202 -0.939693 0   
     length 7.22924   
     axis 0 0 -20   XYZ
    dof rx
    limits (-10.0 170.0)
 end
 begin
     id 9 
     name rfoot
     direction -0.0766747 -0.210662 0.974547   
     length 1.98482  
     axis -90 -7.62852e-016 -20   XYZ
    dof rx rz
    limits (-45.0 90.0)
           (-20.0 70.0)
  end
  begin
     id 10 
     name rtoes
     direction -1.53532e-011 -4.21867e-011 1   
     length 0.999842   
     axis -90 -7.62852e-016 -20   XYZ
    dof rx
    limits (-90.0 20.0)
  end
  begin
     id 11 
     name lowerback
     direction -0.0224668 0.997354 -0.0691422   
     length 2.09945   
     axis 0 0 0   XYZ
    dof rx ry rz
    limits (-20.0 45.0)
           (-30.0 30.0)
           (-30.0 30.0)
  end
  begin
     id 12 
     name upperback
     direction 0.0134698 0.998451 -0.0539888   
     length 2.09758   
     axis 0 0 0   XYZ
    dof rx ry rz
    limits (-20.0 45.0)
           (-30.0 30.0)
           (-30.0 30.0)
  end
  begin
     id 13 
     name thorax
     direction 0.0241905 0.99948 -0.0213333   
     length 2.10428   
     axis 0 0 0   XYZ
    dof rx ry rz
    limits (-20.0 45.0)
           (-30.0 30.0)
           (-30.0 30.0)
  end
  begin
     id 14 
     name lowerneck
     direction -0.00866847 0.995978 0.0891737   
     length 1.3959   
     axis 0 0 0   XYZ
    dof rx ry rz
    limits (-20.0 45.0)
           (-30.0 30.0)
           (-30.0 30.0)
  end
  begin
     id 15 
     name upperneck
     direction 0.0680679 0.992203 0.104404   
     length 1.39452   
     axis 0 0 0   XYZ
    dof rx ry rz
    limits (-20.0 45.0)
           (-30.0 30.0)
           (-30.0 30.0)
  end
  begin
     id 16
     name head
     direction 0.0242216 0.999358 0.0264054  
     length 1.40433  
     axis 0 0 0   XYZ
    dof rx ry rz
    limits (-20.0 45.0)
           (-30.0 30.0)
           (-30.0 30.0)
  end
  begin
     id 17 
     name lclavicle
     direction 0.929368 0.362991 -0.0671771  
     length 3.04887  
     axis 0 0 0   XYZ
    dof ry rz
    limits (-20.0 10.0)
           (0.0 20.0)
  end
  begin
     id 18 
     name lhumerus
     direction 1 -4.48967e-011 -7.13741e-028   
     length 4.77195   
     axis -180 -30 -90   XYZ
    dof rx ry rz
    limits (-60.0 90.0)
           (-90.0 90.0)
           (-90.0 90.0)
  end
  begin
     id 19
     name lradius
     direction 1 -4.48977e-011 3.60404e-027   
     length 2.98444   
     axis -180 -30 -90   XYZ
    dof rx
    limits (-10.0 170.0)
  end
  begin
     id 20
     name lwrist
     direction 1 -4.48997e-011 7.54877e-027   
     length 1.49222   
     axis -7.18178e-015 90 90   XYZ
    dof ry
    limits (-180.0 0.0)
 end
  begin
     id 21 
     name lhand
     direction 1 -4.489e-011 1.51105e-026   
     length 0.992285   
     axis -9.63605e-015 90 90   XYZ
    dof rx rz
    limits (-90.0 90.0)
           (-45.0 45.0)
  end
  begin
     id 22 
     name lfingers
     direction 1 -4.48998e-011 3.01948e-026   
     length 0.800006   
     axis -1.92718e-014 90 90   XYZ
    dof rx
    limits (0.0 90.0)
  end
  begin
     id 23
     name lthumb
     direction 0.707107 -6.34881e-011 0.707107   
     length 1.14865   
     axis -90 45 -3.53137e-014   XYZ
    dof rx rz
    limits (-45.0 45.0)
           (-45.0 45.0)
  end
  begin
     id 24 
     name rclavicle
     direction -0.945672 0.324529 0.0196374   
     length 3.4236  
     axis 0 0 0   XYZ 
    dof ry rz
    limits (-10.0 20.0)
           (-20.0 0.0)
  end
  begin
     id 25 
     name rhumerus
     direction -1 -4.4896e-011 1.02757e-029  
     length 4.62052   
     axis -180 30 90   XYZ
    dof rx ry rz
    limits (-90.0 60.0)
           (-90.0 90.0)
           (-90.0 90.0)
  end
  begin
     id 26 
     name rradius
     direction -1 -4.48982e-011 3.85962e-027   
     length 2.95332   
     axis -180 30 90   XYZ
    dof rx
    limits (-10.0 170.0)
  end
  begin
     id 27 
     name rwrist
     direction -1 -4.48961e-011 7.55118e-027   
     length 1.47666   
     axis -7.18178e-015 -90 -90   XYZ
    dof ry
    limits (-180.0 0.0)
  end
  begin
     id 28
     name rhand
     direction -1 -4.48984e-011 1.50994e-026   
     length 0.990956   
     axis -9.63605e-015 -90 -90   XYZ
    dof rx rz
    limits (-90.0 90.0)
           (-45.0 45.0)
  end
  begin
     id 29
     name rfingers
     direction -1 -4.4892e-011 3.02158e-026   
     length 0.798934   
     axis -1.92718e-014 -90 -90   XYZ
    dof rx
    limits (0.0 90.0)
  end
  begin
     id 30
     name rthumb
     direction -0.707107 -6.34916e-011 0.707107   
     length 1.14711   
     axis -90 -45 3.53137e-014   XYZ
    dof rx rz
    limits (-45.0 45.0)
           (-45.0 45.0)
  end
:hierarchy
  begin
    root lhipjoint rhipjoint lowerback
    lhipjoint lfemur
    lfemur ltibia
    ltibia lfoot
    lfoot ltoes
    rhipjoint rfemur
    rfemur rtibia
    rtibia rfoot
    rfoot rtoes
    lowerback upperback
    upperback thorax
    thorax lowerneck lclavicle rclavicle
    lowerneck upperneck
    upperneck head
    lclavicle lhumerus
    lhumerus lradius
    lradius lwrist
    lwrist lhand lthumb
    lhand lfingers
    rclavicle rhumerus
    rhumerus rradius
    rradius rwrist
    rwrist rhand rthumb
    rhand rfingers
  end

#!OML:ASF H:\ManfredObstacles\Project 1\Capture day 1\Session 1\Male.ASF
:FULLY-SPECIFIED
:DEGREES
348
root 1.08606 16.4123 -15.5627 -167.307 -13.0618 -175.643
lowerback -11.4489 -3.4074 1.03135
upperback 0.201006 -4.98138 2.87845
thorax 6.80662 -2.50136 1.59002
lowerneck 0.697034 -2.23075 -5.23308
upperneck -13.8216 -2.86749 11.5798
head -3.9399 -2.1422 4.56705
rclavicle -5.49453e-014 2.2239e-014
rhumerus -32.457 -17.8215 -75.5003
rradius 33.7646
rwrist 24.4122
rhand -2.31267 -8.26912
rfingers 7.12502
rthumb 23.3735 -36.8699
lclavicle -5.49453e-014 2.2239e-014
lhumerus -21.7757 7.35963 90.1285
lradius 17.229
lwrist -31.82
lhand -8.17664 8.75499
lfingers 7.12502
lthumb 17.7389 37.9659
rfemur -36.4079 -10.1918 27.2066
rtibia 28.9045
rfoot -11.4715 15.7017
rtoes 10.7701
lfemur 9.28242 -3.33737 -10.3181
ltibia -2.54444e-014
lfoot -2.06317 -11.1962
ltoes -0.0571275
349
root 1.0897 16.4135 -15.5903 -167.048 -13.1092 -175.656
lowerback -11.3366 -3.33337 1.13401
upperback 0.187662 -4.89315 2.87733
thorax 6.71782 -2.45572 1.55398
lowerneck 0.411139 -2.24261 -5.55118
upperneck -13.6165 -2.86702 11.9962
head -3.81425 -2.13896 4.73981
rclavicle -4.76462e-014 2.1096e-014
rhumerus -31.7263 -17.3717 -75.8752
rradius 34.0513
rwrist 24.4046
rhand -2.52077 -8.16988
rfingers 7.12502
rthumb 23.1738 -36.7959
lclavicle -4.76462e-014 2.1096e-014
lhumerus -21.2457 6.04465 90.8209
lradius 17.8424
lwrist -30.487
lhand -8.09451 8.93931
lfingers 7.12502
lthumb 17.8179 38.143
rfemur -36.6919 -10.3692 27.3552
rtibia 29.0232
rfoot -11.7905 15.8737
rtoes 10.8638
lfemur 9.10075 -3.34892 -10.3372
ltibia 3.18055e-015
lfoot -2.26756 -11.0325
ltoes -0.881769
350
root 1.09281 16.4188 -15.6103 -166.771 -13.1623 -175.838
lowerback -11.1685 -3.23869 1.10901
upperback 0.149403 -4.74747 2.79217
thorax 6.57258 -2.38325 1.51444
lowerneck 0.344256 -2.30186 -5.56577
upperneck -13.5854 -2.94116 12.071
head -3.78466 -2.17637 4.76497
rclavicle 1.0753e-014 4.22417e-016
rhumerus -31.2345 -17.0739 -76.1772
rradius 34.3997
rwrist 24.3882
rhand -2.67002 -8.20603
rfingers 7.12502
rthumb 23.0306 -36.85
lclavicle 1.0753e-014 4.22417e-016
lhumerus -20.751 4.65546 91.4703
lradius 18.4813
lwrist -29.4169
lhand -7.90202 9.05796
lfingers 7.12502
lthumb 18.0031 38.2447
rfemur -36.9238 -10.4547 27.2629
rtibia 29.0657
rfoot -11.9172 15.8727
rtoes 9.22398
lfemur 8.88741 -3.40497 -10.5424
ltibia 9.54166e-015
lfoot -2.47668 -10.7944
ltoes -2.17605
351
root 1.09338 16.4259 -15.6267 -166.497 -13.437 -175.795
lowerback -11.1323 -3.20805 1.24712
upperback 0.105053 -4.72837 2.83034
thorax 6.4969 -2.37226 1.48392
lowerneck 0.618949 -2.37131 -5.28699
upperneck -13.8631 -3.04281 11.7551
head -3.91836 -2.23651 4.63474
rclavicle 2.57426e-014 -1.18277e-014
rhumerus -30.7675 -16.8119 -76.4277
rradius 34.6576
rwrist 24.4553
rhand -2.6886 -8.20667
rfingers 7.12502
rthumb 23.0128 -36.8528
lclavicle 2.57426e-014 -1.18277e-014
lhumerus -20.1551 3.55066 92.0688
lradius 18.8475
lwrist -28.7024
lhand -7.96441 8.95402
lfingers 7.12502
lthumb 17.9431 38.1463
rfemur -37.1784 -10.5893 27.3819
rtibia 29.0868
rfoot -11.8467 15.8284
rtoes 8.31674
lfemur 8.58718 -3.61549 -10.4608
ltibia 0
lfoot -2.66496 -10.5795
ltoes -2.8903
352
root 1.09126 16.4334 -15.64 -166.234 -13.5769 -175.946
lowerback -11.1239 -3.2267 1.06773
upperback 0.118987 -4.7348 2.89426
thorax 6.52735 -2.38249 1.64997
lowerneck 0.499437 -2.30723 -5.50247
upperneck -13.8046 -2.95271 11.8547
head -3.88211 -2.18165 4.69618
rclavicle 1.14761e-013 -1.27222e-014
rhumerus -30.1439 -16.1514 -76.7047
rradius 34.6947
rwrist 24.3707
rhand -2.71351 -8.07888
rfingers 7.12502
rthumb 22.9889 -36.728
lclavicle 1.14761e-013 -1.27222e-014
lhumerus -19.425 2.74893 92.6816
lradius 19.09
lwrist -28.1568
lhand -8.0401 8.8521
lfingers 7.12502
lthumb 17.8703 38.0511
rfemur -37.3644 -10.5991 27.2107
rtibia 29.0788
rfoot -11.8254 15.7357
rtoes 8.83448
lfemur 8.38808 -3.75365 -10.6298
ltibia 5.725e-014
lfoot -2.88053 -10.4571
ltoes -3.69228
353
root 1.08936 16.437 -15.6477 -166.19 -13.6683 -175.915
lowerback -10.8512 -3.15957 1.13636
upperback 0.0930779 -4.64854 2.92466
thorax 6.34082 -2.34084 1.67396
lowerneck 0.637481 -2.26316 -5.46008
upperneck -13.8927 -2.88955 11.7984
head -3.93976 -2.15346 4.67526
rclavicle -8.0632e-015 -9.64106e-015
rhumerus -29.8496 -15.4877 -76.9861
rradius 34.7594
rwrist 24.2051
rhand -2.76002 -8.08405
rfingers 7.12502
rthumb 22.9443 -36.7387
lclavicle -8.0632e-015 -9.64106e-015
lhumerus -18.9551 1.66622 93.2595
lradius 19.4831
lwrist -27.4349
lhand -8.07256 8.83044
lfingers 7.12502
lthumb 17.839 38.0322
rfemur -37.3496 -10.4827 27.1799
rtibia 29.0498
rfoot -11.9174 15.5103
rtoes 9.41935
lfemur 8.38874 -3.8313 -10.6065
ltibia -3.18055e-015
lfoot -3.06778 -10.3686
ltoes -4.99198
354
root 1.08822 16.4382 -15.6497 -166.111 -13.7308 -176.061
lowerback -10.5816 -3.08446 1.0646
upperback 0.0310849 -4.521 2.85153
thorax 6.11878 -2.27948 1.67475
lowerneck 0.949501 -2.23694 -5.31462
upperneck -14.1133 -2.84939 11.6849
head -4.06799 -2.14673 4.62693
rclavicle -7.27428e-014 4.37326e-015
rhumerus -29.7732 -15.1212 -77.3012
rradius 34.868
rwrist 24.1362
rhand -2.76318 -8.29163
rfingers 7.12502
rthumb 22.9412 -36.9467
lclavicle -7.27428e-014 4.37326e-015
lhumerus -18.6581 0.384744 93.7555
lradius 19.9898
lwrist -26.695
lhand -8.02858 8.88142
lfingers 7.12502
lthumb 17.8813 38.0794
rfemur -37.3536 -10.3028 26.929
rtibia 29.047
rfoot -12.0232 15.1969
rtoes 8.91856
lfemur 8.35181 -3.9208 -10.7623
ltibia -5.08889e-014
lfoot -3.18309 -10.2787
ltoes -5.35742
355
root 1.0851 16.4405 -15.6467 -165.976 -13.806 -176.294
lowerback -10.4079 -3.03144 0.901974
upperback 0.0237124 -4.41746 2.80005
thorax 6.01807 -2.23152 1.73778
lowerneck 1.05249 -2.21055 -5.27337
upperneck -14.3122 -2.82022 11.5314
head -4.15242 -2.13431 4.57906
rclavicle 3.49737e-014 -1.93815e-014
rhumerus -29.5644 -14.8789 -77.558
rradius 34.8878
rwrist 24.139
rhand -2.76668 -8.31699
rfingers 7.12502
rthumb 22.9379 -36.9725
lclavicle 3.49737e-014 -1.93815e-014
lhumerus -18.265 -0.855271 94.2796
lradius 20.547
lwrist -26.069
lhand -7.78042 8.984
lfingers 7.12502
lthumb 18.1201 38.16
rfemur -37.4007 -10.1526 26.5999
rtibia 29.0103
rfoot -12.121 14.8458
rtoes 8.12897
lfemur 8.209 -4.03343 -10.9916
ltibia -6.36111e-015
lfoot -3.19061 -10.2839
ltoes -5.12301
356
root 1.07736 16.4449 -15.6395 -165.825 -13.9124 -176.511
lowerback -10.2093 -2.95665 0.889632
upperback -0.0470954 -4.29849 2.69343
thorax 5.82007 -2.17121 1.66418
lowerneck 1.11367 -2.14736 -5.3954
upperneck -14.3807 -2.72731 11.6155
head -4.18757 -2.08999 4.62699
rclavicle 1.29583e-014 -3.60794e-014
rhumerus -29.5613 -14.858 -77.7569
rradius 34.8929
rwrist 24.2149
rhand -2.79719 -8.16249
rfingers 7.12502
rthumb 22.9086 -36.8216
lclavicle 1.29583e-014 -3.60794e-014
lhumerus -18.0923 -2.35642 94.7752
lradius 21.2089
lwrist -25.2332
lhand -7.70335 9.03624
lfingers 7.12502
lthumb 18.1943 38.2053
rfemur -37.4708 -10.1316 26.3297
rtibia 28.9087
rfoot -12.1889 14.5439
rtoes 7.76617
lfemur 8.0126 -4.16875 -11.2023
ltibia -1.59028e-014
lfoot -3.11523 -10.4002
ltoes -4.54405
357
root 1.06795 16.4494 -15.6322 -165.694 -14.0792 -176.619
lowerback -10.0966 -2.90123 1.00454
upperback -0.138546 -4.22399 2.5805
thorax 5.64085 -2.12985 1.50181
lowerneck 1.33682 -2.08685 -5.50767
upperneck -14.5098 -2.62561 11.846
head -4.26653 -2.05736 4.72452
rclavicle 4.09372e-014 -3.74709e-014
rhumerus -29.7235 -14.9817 -77.9887
rradius 34.8672
rwrist 24.4106
rhand -2.74124 -8.16092
rfingers 7.12502
rthumb 22.9623 -36.8134
lclavicle 4.09372e-014 -3.74709e-014
lhumerus -18.0579 -3.89512 95.1731
lradius 21.8981
lwrist -24.2284
lhand -7.82986 9.07282
lfingers 7.12502
lthumb 18.0725 38.2532
rfemur -37.5542 -10.1678 26.1893
rtibia 28.8323
rfoot -12.3067 14.2906
rtoes 7.18903
lfemur 7.81993 -4.33675 -11.2907
ltibia -2.22639e-014
lfoot -3.20866 -10.5416
ltoes -5.02695
358
root 1.06192 16.4526 -15.6154 -165.572 -14.0596 -176.32
lowerback -10.0444 -2.75565 1.37056
upperback -0.21119 -4.08149 2.64748
thorax 5.51143 -2.05529 1.39284
lowerneck 1.09472 -2.15705 -5.47873
upperneck -14.1828 -2.72456 11.7157
head -4.121 -2.07632 4.66571
rclavicle 4.76462e-014 -1.08338e-014
rhumerus -29.7342 -15.0064 -78.1867
rradius 34.6587
rwrist 24.623
rhand -2.66544 -8.26761
rfingers 7.12502
rthumb 23.035 -36.911
lclavicle 4.76462e-014 -1.08338e-014
lhumerus -17.8943 -5.18207 95.5984
lradius 22.4691
lwrist -23.366
lhand -7.93921 9.09732
lfingers 7.12502
lthumb 17.9673 38.2874
rfemur -37.7593 -9.60653 26.3265
rtibia 28.8357
rfoot -12.3489 13.7884
rtoes 5.99161
lfemur 7.57823 -4.21087 -10.9645
ltibia 2.22639e-014
lfoot -3.39537 -10.6484
ltoes -6.60964
359
root 1.04789 16.4518 -15.6092 -165.55 -14.1888 -176.302
lowerback -10.0588 -2.70901 1.50848
upperback -0.194833 -4.03875 2.66407
thorax 5.52776 -2.03121 1.33829
lowerneck 0.957369 -2.16595 -5.52624
upperneck -14.0456 -2.74022 11.6383
head -4.05581 -2.06571 4.64263
rclavicle -2.08724e-015 1.27222e-014
rhumerus -29.7204 -15.0847 -78.3303
rradius 34.3137
rwrist 24.8743
rhand -2.69586 -8.22367
rfingers 7.12502
rthumb 23.0058 -36.8707
lclavicle -2.08724e-015 1.27222e-014
lhumerus -17.7484 -6.27678 96.0345
lradius 23.0176
lwrist -22.7568
lhand -8.07672 9.0871
lfingers 7.12502
lthumb 17.835 38.2893
rfemur -37.8009 -9.63135 26.2556
rtibia 28.8695
rfoot -12.4257 13.7378
rtoes 5.77106
lfemur 7.54876 -4.33023 -10.964
ltibia -3.49861e-014
lfoot -3.3768 -10.7441
ltoes -5.84327
360
root 1.03129 16.4445 -15.5973 -165.571 -14.1727 -176.555
lowerback -9.95824 -2.6567 1.39492
upperback -0.158536 -3.94132 2.56726
thorax 5.50803 -1.98209 1.31927
lowerneck 0.952854 -2.16393 -5.37262
upperneck -14.0768 -2.7465 11.4177
head -4.07163 -2.06301 4.54818
rclavicle -4.1546e-014 -1.46107e-014
rhumerus -29.8297 -15.4252 -78.4406
rradius 34.0238
rwrist 25.3344
rhand -2.77137 -8.13459
rfingers 7.12502
rthumb 22.9334 -36.7906
lclavicle -4.1546e-014 -1.46107e-014
lhumerus -17.6674 -7.32286 96.396
lradius 23.5701
lwrist -22.1675
lhand -8.2225 9.08646
lfingers 7.12502
lthumb 17.6947 38.3013
rfemur -37.7835 -9.6254 25.8564
rtibia 28.9221
rfoot -12.4776 13.7224
rtoes 5.65894
lfemur 7.6786 -4.39845 -11.3221
ltibia 0
lfoot -3.27621 -10.8391
ltoes -3.89317
361
root 1.0172 16.4388 -15.5755 -165.604 -13.9498 -176.454
lowerback -9.80067 -2.49602 1.54834
upperback -0.175043 -3.74206 2.57673
thorax 5.38949 -1.88193 1.28002
lowerneck 0.986056 -2.17384 -5.222
upperneck -14.09 -2.7706 11.15
head -4.08787 -2.06433 4.44007
rclavicle -1.55797e-014 2.5842e-015
rhumerus -30.0272 -15.7973 -78.4738
rradius 33.7575
rwrist 25.8693
rhand -2.72867 -8.09386
rfingers 7.12502
rthumb 22.9743 -36.7448
lclavicle -1.55797e-014 2.5842e-015
lhumerus -17.634 -8.22296 96.7256
lradius 24.0068
lwrist -21.6167
lhand -8.39789 9.02505
lfingers 7.12502
lthumb 17.526 38.2551
rfemur -37.8841 -9.19724 25.7762
rtibia 29.0388
rfoot -12.3799 13.533
rtoes 5.98075
lfemur 7.73108 -4.16569 -11.3324
ltibia 2.54444e-014
lfoot -3.31438 -10.8902
ltoes -3.45471
